<svg width="512" height="512" xmlns="http://www.w3.org/2000/svg" clip-rule="evenodd">

 <g>
  <title>background</title>
  <rect fill="none" id="canvas_background" height="402" width="582" y="-1" x="-1"/>
 </g>
 <g>
  <title>Layer 1</title>
  <path fill="#e63946" id="svg_1" fill-rule="nonzero" d="m255.998001,0.001c-141.384003,0 -255.998001,114.616996 -255.998001,255.997993c0,108.455994 67.474998,201.171021 162.707001,238.471008c-2.240005,-20.255005 -4.261002,-51.404999 0.888992,-73.518005c4.650009,-19.977997 30.018005,-127.247986 30.018005,-127.247986c0,0 -7.658997,-15.334015 -7.658997,-38.008011c0,-35.595993 20.632004,-62.171005 46.322998,-62.171005c21.839005,0 32.391006,16.399002 32.391006,36.061005c0,21.965988 -13.984009,54.803009 -21.203003,85.235016c-6.029999,25.481995 12.778992,46.260986 37.908997,46.260986c45.502991,0 80.47699,-47.976013 80.47699,-117.229004c0,-61.292999 -44.044983,-104.149002 -106.931992,-104.149002c-72.841003,0 -115.597,54.634003 -115.597,111.095001c0,22.004013 8.475006,45.595993 19.052002,58.421005c2.089996,2.535004 2.397995,4.757996 1.776001,7.342987c-1.945007,8.087006 -6.261993,25.473999 -7.111008,29.032013c-1.116989,4.686005 -3.710999,5.681 -8.560989,3.424011c-31.974007,-14.884003 -51.963005,-61.627014 -51.963005,-99.174011c0,-80.755005 58.672005,-154.915001 169.148003,-154.915001c88.806,0 157.820984,63.278999 157.820984,147.850014c0,88.228989 -55.628998,159.23201 -132.84198,159.23201c-25.940002,0 -50.328003,-13.476013 -58.674011,-29.394012c0,0 -12.837997,48.877991 -15.949997,60.855988c-5.781998,22.237 -21.382004,50.109009 -31.817993,67.110016c23.955002,7.416992 49.408997,11.415985 75.796982,11.415985c141.389008,0 256.002991,-114.612 256.002991,-256.001007c0,-141.380997 -114.613983,-255.997993 -256.002991,-255.997993l0.000015,0z"/>
 </g>
</svg>